<svg xmlns="http://www.w3.org/2000/svg" width="149.53" height="140.28" viewBox="0 0 149.53 140.28"><path d="M143.9 34.54s-8.65-6.31-31.7 5.38l5.62 8.45s11.85-5.93 24.2-5.28c2.19.12 7.37-2.18 1.88-8.55z" fill="#faa919"/><path d="M117.82 49.45a1.09 1.09 0 01-.9-.48l-5.62-8.45a1.08 1.08 0 01-.14-.87 1.09 1.09 0 01.55-.69c23.37-11.85 32.45-5.56 32.83-5.29l.18.17c3.15 3.66 3 6.13 2.27 7.56a5.53 5.53 0 01-5 2.77c-11.93-.63-23.54 5.1-23.66 5.16a1 1 0 01-.51.12zm-4-9.11l4.43 6.66c3-1.35 13.17-5.54 23.88-5a3.48 3.48 0 003-1.57c.58-1.18-.09-3-1.87-5.09-1.01-.54-9.5-4.86-29.5 5z" fill="#123456"/><path d="M1.14 103.97S-1.4 93.75 25.59 78.69l.8 11.42s-16.18 12.3-16.51 16.69c-.12 2.18-6.36 5.24-8.74-2.83z" fill="#faa919"/><path d="M6.29 110.3c-1.65 0-4.63-.78-6.18-6-.11-.45-2.43-11.19 25-26.48a1.08 1.08 0 011 0 1.06 1.06 0 01.56.87l.81 11.43a1.09 1.09 0 01-.43.93c-6.56 5-15.88 13.21-16.09 15.91-.12 1.61-2 3.17-4.13 3.4zm-4.1-6.59c.91 3.06 2.48 4.62 4.41 4.43a2.6 2.6 0 002.21-1.42c.33-4.42 12.89-14.36 16.47-17.08l-.64-9.15C1.03 94.03 2.11 103.25 2.19 103.71z" fill="#123456"/><circle cx="74.69" cy="70.64" r="68.64" fill="#a0cfeb"/><circle cx="74.69" cy="70.64" r="53.26" fill="#d9f0f9"/><path d="M99.61 6.7a68.36 68.36 0 00-39.85-2.6 68.65 68.65 0 0124.55 134.91A68.65 68.65 0 0099.61 6.7z" fill="#509fd5"/><circle cx="74.69" cy="23.3" r="2.37" fill="#92d0ee"/><circle cx="122.03" cy="70.64" r="2.37" fill="#92d0ee"/><circle cx="27.35" cy="70.64" r="2.37" fill="#92d0ee"/><circle cx="74.69" cy="117.98" r="2.37" fill="#92d0ee"/><circle cx="35.63" cy="48.15" r="2.37" fill="#92d0ee"/><circle cx="51.02" cy="31.58" r="2.37" fill="#92d0ee"/><circle cx="113.75" cy="48.15" r="2.37" fill="#92d0ee"/><circle cx="98.36" cy="31.58" r="2.37" fill="#92d0ee"/><circle cx="35.63" cy="93.12" r="2.37" fill="#92d0ee"/><circle cx="51.02" cy="109.69" r="2.37" fill="#92d0ee"/><circle cx="113.75" cy="93.12" r="2.37" fill="#92d0ee"/><circle cx="98.36" cy="109.69" r="2.37" fill="#92d0ee"/><path d="M74.69 140.28a69.65 69.65 0 1169.64-69.64 69.72 69.72 0 01-69.64 69.64zm0-137.29a67.65 67.65 0 1067.64 67.65A67.73 67.73 0 0074.69 2.99z" fill="#123456"/><circle cx="74.76" cy="74.22" r="29.1" fill="#92d0ee"/><circle cx="74.76" cy="68.11" r="29.1" fill="#a0cfeb"/><path d="M56.26 74.39c0-7.53 8.8-8.87 8.8-11.8a2 2 0 00-2.19-2c-1.94 0-3 2.16-3 2.16l-3.71-2.48a7.86 7.86 0 017.18-4.39c3.34 0 7 1.91 7 6.24 0 6.36-8.21 7.59-8.35 10.21h8.66v4.27H56.48a12.59 12.59 0 01-.22-2.21zM72.04 68.64l7.87-12.43h6.1v11.31h2.42v4.12h-2.42v4.93h-4.93v-4.93h-9zm9-1.11v-4.57a18.35 18.35 0 01.21-2.32h-.06a10.75 10.75 0 01-1 2.11l-3.08 4.67v.06zM91.02 68.22h2v3.13a2.05 2.05 0 011.82-.95A2 2 0 0197 72.64v3.88h-2v-3.51c0-.55-.22-.79-.66-.79a1.2 1.2 0 00-1.19.89 2.06 2.06 0 00-.11.76v2.65h-2z" fill="#1ba0e2"/><path d="M74.76 98.21a30.11 30.11 0 1130.1-30.1 30.13 30.13 0 01-30.1 30.1zm0-58.21a28.11 28.11 0 1028.1 28.11A28.13 28.13 0 0074.76 40z" fill="#123456"/><path d="M136.53 49.07c4.15-5.45 6.21-10.81 6.67-14.9a13 13 0 014.38 4.47c2.2 4.43.13 11.81-5.44 18.59C126.69 76.06 124 69.12 124 69.12s-9-1.23-2.25-6.85c9.01-7.53 11.32-8.63 14.78-13.2z" fill="#ffcc05"/><path d="M126.21 71.41a4.8 4.8 0 01-.67 0 3.4 3.4 0 01-2.21-1.3c-1.29-.25-4.4-1.09-5-3.33-.47-1.63.44-3.38 2.78-5.33 2.66-2.22 4.76-3.9 6.45-5.24 4-3.19 5.8-4.64 8.15-7.74 3.62-4.75 6-10 6.46-14.37a1.06 1.06 0 01.59-.84 1.08 1.08 0 011 0 14.05 14.05 0 014.79 4.87c2.44 4.91.25 12.66-5.57 19.76-7.39 8.97-13.02 13.52-16.77 13.52zm11.18-21.69c-2.52 3.31-4.53 4.92-8.53 8.12-1.68 1.34-3.77 3-6.42 5.22-1.52 1.27-2.28 2.39-2.08 3.08.27 1 2.42 1.69 3.78 1.88a1.06 1.06 0 01.86.68 1.17 1.17 0 00.94.54c1.34.18 5.52-.73 15.37-12.73 5.2-6.34 7.33-13.34 5.31-17.43a10.85 10.85 0 00-2.63-3 34.48 34.48 0 01-6.6 13.66z" fill="#123456"/><path d="M134.55 54.64l-23.55 4a2 2 0 00-1.16 3.18l4.62 5.38c-9.4 6.72-19.92 14.28-32.3 20.44-35.58 17.65-69.14 23.08-81 16a14.83 14.83 0 00.8 6.61c6.24 12.58 43.41 7.41 83.93-12.7 13.24-6.57 25.2-15.58 35-22.81l5.35 6.37a2 2 0 003.34-.66l7.43-23a2.17 2.17 0 00-2.46-2.81z" fill="#ffcc05"/><path d="M19.9 118.17c-9.64 0-16.41-2.43-18.92-7.48a15.62 15.62 0 01-.9-7.2 1.06 1.06 0 01.59-.85 1.08 1.08 0 011 0c10.48 6.27 42.08 2.79 80-16 11.91-5.9 22.14-13.17 31.2-19.68l-3.85-4.5a3 3 0 011.8-4.94l23.54-4a3.24 3.24 0 013.62 4.19l-7.42 23a3 3 0 01-5.19 1l-4.71-5.6-.66.5c-9.36 6.92-21 15.53-33.67 21.82-25.8 12.85-50.18 19.74-66.43 19.74zM2.15 105.34a12.22 12.22 0 00.75 4.39c2.78 5.6 13 7.54 28 5.32 15.79-2.33 35.15-8.9 54.5-18.5 12.5-6.2 24.05-14.75 33.34-21.62l1.48-1.1a1.07 1.07 0 011.46.18l5.35 6.37a.87.87 0 00.84.29.86.86 0 00.66-.59l7.42-23a1.09 1.09 0 00-1.19-1.39l-23.54 4a.88.88 0 00-.52 1.43l4.61 5.37a1.09 1.09 0 01.26.83 1.12 1.12 0 01-.44.75c-9.37 6.7-20.01 14.33-32.49 20.57-32.59 16.12-66.48 23.07-80.49 16.7z" fill="#123456"/><path d="M42.36 38.75a5.76 5.76 0 01-4.74-4.35 19.79 19.79 0 10-7.19 4.77 13.8 13.8 0 007.33 1.73 26.26 26.26 0 004.66-.43.87.87 0 000-1.72z" fill="#ffcc05"/><path d="M42.36 38.75a5.76 5.76 0 01-4.74-4.35A19.69 19.69 0 0021.06 1.15a20.84 20.84 0 0117.89 20.64c0 8.77-5.79 13.34-9.5 17.21.62 2 5.69 1.4 8.71 1.82a1.17 1.17 0 01.2.06 25.82 25.82 0 004-.41.87.87 0 000-1.72z" fill="#faa91a"/><path d="M37.76 41.9a15.09 15.09 0 01-7.43-1.62 20.71 20.71 0 118.43-5.64 4.55 4.55 0 003.73 3.12 1.87 1.87 0 01.11 3.69 25.79 25.79 0 01-4.84.45zm-7.32-3.74a1 1 0 01.54.16 12.64 12.64 0 006.78 1.57 25.61 25.61 0 003.72-.25 6.75 6.75 0 01-4.82-4.91 1 1 0 01.24-1 18.73 18.73 0 10-32.26-13 18.71 18.71 0 0025.43 17.5 1.15 1.15 0 01.36-.07zm11.79 1.59z" fill="#123456"/><path d="M33.11 12.17a2.18 2.18 0 00-1.64-.46 2.21 2.21 0 00-1.49.83l-9.22 11.79-4.34-4.5a2.22 2.22 0 00-3.14-.05 2.18 2.18 0 00-.68 1.56 2.22 2.22 0 00.62 1.58l6.11 6.33a2.23 2.23 0 001.6.68h.11a2.18 2.18 0 001.63-.85l10.81-13.79a2.22 2.22 0 00-.37-3.12z" fill="#289ed8"/></svg>