<?xml version="1.0" encoding="iso-8859-1"?>
<!-- Generator: Adobe Illustrator 18.1.1, SVG Export Plug-In . SVG Version: 6.00 Build 0)  -->
<svg version="1.1" id="Capa_1" xmlns="http://www.w3.org/2000/svg" xmlns:xlink="http://www.w3.org/1999/xlink" x="0px" y="0px"
	 viewBox="0 0 612 612" style="enable-background:new 0 0 612 612;" xml:space="preserve">
<g>
	<path d="M597.618,185.82h-47.631c-7.942,0-14.382,6.44-14.382,14.382v7.243h-18.72c-0.443,0-0.86,0.092-1.292,0.129V87.75
		c0-43.881-35.7-79.583-79.583-79.583h-259.4c-43.881,0-79.583,35.7-79.583,79.583v119.891c-0.633-0.086-1.26-0.193-1.919-0.193
		h-18.72v-7.246c0-7.942-6.44-14.382-14.382-14.382H14.382C6.44,185.82,0,192.26,0,200.202v85.952
		c0,7.942,6.44,14.382,14.382,14.382H55.09l41.942,45.437V465.85h-1.769c-7.942,0-14.382,6.44-14.382,14.382v66.518
		c0,7.942,6.44,14.382,14.382,14.382h19.698v20.872c0,12.038,9.794,21.83,21.83,21.83h48.339c12.038,0,21.83-9.794,21.83-21.83
		v-20.872h198.709v20.872c0,12.038,9.794,21.83,21.83,21.83h48.336c12.038,0,21.83-9.794,21.83-21.83v-20.872h19.698
		c7.942,0,14.382-6.44,14.382-14.382v-66.518c0-7.942-6.44-14.382-14.382-14.382h-1.769V345.294l41.318-44.758h40.708
		c7.942,0,14.382-6.44,14.382-14.382v-85.952C612,192.26,605.56,185.82,597.618,185.82z M214.619,384.152v25.232
		c0,7.942-6.44,14.382-14.382,14.382h-53.606c-7.942,0-14.382-6.44-14.382-14.382v-25.232c0-7.942,6.44-14.382,14.382-14.382h53.606
		C208.179,369.77,214.619,376.207,214.619,384.152z M260.746,360.2c0-3.768,3.063-6.832,6.832-6.832h77.469
		c3.768,0,6.832,3.063,6.832,6.832v105.65h-91.132V360.2z M449.339,280.257c-9.461-15.375-26.389-25.183-44.853-25.183
		c-18.464,0-35.395,9.809-44.856,25.183h-38.936V120.144h165.509v160.113H449.339z M291.93,280.257H126.424V120.144h165.509v160.113
		H291.93z M395.923,384.152c0-7.942,6.44-14.382,14.382-14.382h53.606c7.942,0,14.382,6.44,14.382,14.382v25.232
		c0,7.942-6.44,14.382-14.382,14.382h-53.606c-7.942,0-14.382-6.44-14.382-14.382V384.152z M28.765,214.584h18.867v57.187H28.765
		V214.584z M76.396,281.209V236.21h18.72c0.656,0,1.283-0.109,1.919-0.193v67.548L76.396,281.209z M502.979,532.368h-19.698h-63.23
		H192.577h-63.233h-19.698v-37.754h1.769h134.952h119.897h134.952h1.769v37.754H502.979z M515.595,236.08
		c0.431,0.04,0.849,0.129,1.292,0.129h18.72v44.999l-20.012,21.677V236.08z M583.235,271.772h-18.867v-57.187h18.867V271.772z"/>
</g>
<g>
</g>
<g>
</g>
<g>
</g>
<g>
</g>
<g>
</g>
<g>
</g>
<g>
</g>
<g>
</g>
<g>
</g>
<g>
</g>
<g>
</g>
<g>
</g>
<g>
</g>
<g>
</g>
<g>
</g>
</svg>
