<svg xmlns="http://www.w3.org/2000/svg" width="145.23" height="149.35" viewBox="0 0 145.23 149.35"><path d="M102.68 137.67c-.54-1.71-8.37-3.17-19.36-3.81a2.81 2.81 0 01-.29 0h-1a6.6 6.6 0 01-5.84-4.83v-14.24h-10.8v14a6.63 6.63 0 01-5.9 5h-1.3c-9.58.56-16.75 1.74-18.77 3.17a2.13 2.13 0 00-.22.18 1.48 1.48 0 00-.27.32.68.68 0 00-.09.33c0 1.17 3.35 2.22 8.8 3 1.44.21 3.05.4 4.78.57 5.19.49 11.52.79 18.35.79h3.36c1.61 0 3.19-.06 4.72-.11 13.72-.49 23.85-2.19 23.85-4.22a.43.43 0 00-.02-.15z" fill="#daf0fa"/><path d="M77.67 136.2a49.85 49.85 0 009.92-2c-1.36-.11-2.79-.21-4.27-.3a2.81 2.81 0 01-.29 0h-1a6.6 6.6 0 01-5.84-4.83v-14.28h-10.8v14a6.63 6.63 0 01-5.9 5h-1.3c-1.47.09-2.87.19-4.21.3l1.16.36a57.18 57.18 0 0015.63 2c1 0 1.93 0 2.87-.07 1.39.06 2.73-.05 4.03-.18z" fill="#92d2f1"/><path d="M70.79 143.22c-6.65 0-13-.28-18.45-.8-1.75-.17-3.37-.36-4.83-.57-8.5-1.22-9.65-2.7-9.65-4a1.68 1.68 0 01.21-.8 2.18 2.18 0 01.47-.58 2.39 2.39 0 01.33-.27c3.05-2.15 14.22-3 19.09-3.34h.4l1-.06a5.57 5.57 0 005-4.21v-13.8a1 1 0 011-1h10.8a1 1 0 011 1v14a5.62 5.62 0 005 4l1.09.06a.74.74 0 01.21 0c15.68.92 19.65 2.93 20.19 4.47a1.6 1.6 0 01.09.53c0 3.77-15.55 4.89-24.82 5.22-1.53.05-3.11.09-4.73.11-1.13.03-2.26.04-3.4.04zM40 137.87c.47.34 2.15 1.19 7.8 2 1.42.21 3 .4 4.73.56 5.36.52 11.67.79 18.26.79h3.35c1.6 0 3.17-.06 4.69-.11 14-.5 21.48-2.12 22.78-3.21-1.06-.87-6.62-2.33-18.35-3H82a7.66 7.66 0 01-6.76-5.58 1.07 1.07 0 010-.25v-13.28h-8.8v13a1.06 1.06 0 01-.08.4 7.68 7.68 0 01-6.75 5.6l-1.11.06h-.2c-11.28.66-16.87 2-18.24 3zm61.75.17zm0 0z" fill="#123456"/><path d="M105.66 101.4a55.64 55.64 0 01-21.36 10.72 58.42 58.42 0 01-14 1.75 56.06 56.06 0 01-31.86-9.84 54.48 54.48 0 01-8.3-7 53.19 53.19 0 01-15.28-37.26c0-1.39.05-2.75.16-4.11s.25-2.66.45-4c.12-.75.25-1.49.4-2.23A53.56 53.56 0 0130.7 21.9l-3-3a2.28 2.28 0 00-3.09-.08c-9.24 8.51-15.19 22-16.58 34.19-.09.82-.31 1.63-.43 2.44-.22 1.44-.39 2.88-.5 4.34s-.17 3-.17 4.5a58.25 58.25 0 0016.68 40.8 59 59 0 009.09 7.65 61.29 61.29 0 0034.91 10.77 58.66 58.66 0 006.39-.34 60.89 60.89 0 0034.06-14.75 3 3 0 00.19-4.33z" fill="#1ba0e2"/><path d="M36.23 108.35a59.43 59.43 0 0072.26-3.88 3.47 3.47 0 00-.29-.38l-2-2.17a56.27 56.27 0 01-10.43 5.92 55.68 55.68 0 01-11.42 4.28 58.42 58.42 0 01-14 1.75 56.06 56.06 0 01-31.86-9.84 54.48 54.48 0 01-8.3-7 53.19 53.19 0 01-15.33-37.26c0-1.39.05-2.75.16-4.11s.25-2.66.45-4c.12-.75.25-1.49.4-2.23a53 53 0 016-16.05 52 52 0 017.48-12.8l-1.61-1.63c-.08-.08-.16-.13-.24-.2-8.38 8.19-13.77 20.7-15.07 32.03-.09.79-.3 1.56-.41 2.35-.22 1.38-.38 2.78-.49 4.18s-.16 2.88-.16 4.34a56.15 56.15 0 0016.1 39.33 57.38 57.38 0 008.76 7.37z" fill="#92d2f1"/><path d="M67.61 124.51a62.28 62.28 0 01-35.49-10.93 61.1 61.1 0 01-9.24-7.78 59.22 59.22 0 01-17-41.5c0-1.53.05-3.07.17-4.57s.28-2.93.51-4.42q.1-.67.24-1.35c.07-.37.13-.73.19-1.1 1.66-10.38 7.07-25.71 16.89-34.77a3.26 3.26 0 014.55.12l3 3a1 1 0 010 1.41 52.46 52.46 0 00-14.56 27q-.22 1.09-.39 2.19c-.2 1.31-.35 2.62-.45 3.89s-.15 2.69-.15 4a52.17 52.17 0 0015 36.57 53.22 53.22 0 008.15 6.87 54.93 54.93 0 0031.29 9.66 55.06 55.06 0 0034.71-12.22 1 1 0 011.36.09l2.53 2.69a4.08 4.08 0 011.1 3 3.93 3.93 0 01-1.35 2.81 62.89 62.89 0 01-41.06 15.34zM26.11 19.22a1.26 1.26 0 00-.85.33C15.81 28.26 10.61 43.1 8.99 53.17c-.06.38-.14.76-.21 1.15s-.17.85-.17 1.26c-.22 1.44-.39 2.87-.5 4.27s-.16 2.94-.16 4.42a57.18 57.18 0 0016.42 40.1 58.74 58.74 0 008.93 7.53 60.22 60.22 0 0034.31 10.61 59.06 59.06 0 006.28-.33 59.91 59.91 0 0033.51-14.52 2 2 0 00.67-1.39 2 2 0 00-.55-1.49l-1.9-2a56.82 56.82 0 01-29.4 11.8 58.17 58.17 0 01-5.94.31 56.92 56.92 0 01-32.42-10 56.16 56.16 0 01-8.46-7.12 54.19 54.19 0 01-15.54-38c0-1.41.05-2.81.16-4.19s.26-2.68.47-4c.11-.76.25-1.52.4-2.28A54.33 54.33 0 0129.3 21.9l-2.27-2.32a1.33 1.33 0 00-.92-.36z" fill="#123456"/><path d="M127.66 59.1c0 25.72-18 47.34-42.34 53.54a59.24 59.24 0 01-14.33 1.78 57.3 57.3 0 01-32.58-10 56 56 0 01-8.49-7.15 54.44 54.44 0 01-15.6-38.12c0-1.41.05-2.81.16-4.2s.26-2.72.47-4.06c.11-.76.25-1.52.4-2.28 5-25.51 28-44.78 55.64-44.78 30.46 0 55.29 23.44 56.6 52.87.02.76.07 1.58.07 2.4z" fill="#92d2f1"/><path d="M62.05 78.82c-.1-1.4.08-3.1 1.36-3.74a5.37 5.37 0 012.74-.16 9 9 0 006.83-2.57c1.09-1.11 1.91-2.52 3.26-3.3s3.45-.85 4.81-1.93c1.18-.94 2.14-2.75 3.62-2.37.79.21 1.24 1 1.83 1.57a3.8 3.8 0 005.92-1.5c.38-1.24.12-2.77 1.1-3.65a3.71 3.71 0 011.6-.68c1.19-.3 2.71-.49 3.42.48.59.79.26 1.89.21 2.87a5.17 5.17 0 005.47 5.13 2.22 2.22 0 001.1-.34 2.65 2.65 0 00.75-1.15 27.57 27.57 0 001.71-6.17c.12-.73.27-1.58.93-1.95a1.71 1.71 0 012 .52 4.67 4.67 0 01.84 2l3 12.59c.71 3 1.43 6.2.54 9.18-.73 2.41-2.43 4.41-4.09 6.33l-7.45 8.62a8.61 8.61 0 01-2.58 2.27 3 3 0 01-3.28-.24 7.57 7.57 0 00-1-1c-.71-.43-1.67-.14-2.46-.44a3.55 3.55 0 01-1.56-1.61 32.4 32.4 0 00-3.12-4.27 8.51 8.51 0 00-3-2.41 7.88 7.88 0 00-3.42-.43c-6.36.34-12.09 3.85-18.36 5a1.4 1.4 0 01-1-.09 1.13 1.13 0 01-.43-.81c-.22-1.31.3-2.64.22-4-.12-2.09-1.64-3.71-2.11-5.69s.77-3.89.6-6.06zM96.15 18.36a4.05 4.05 0 01.13 2.92c-.69 1.42-3 2.21-2.57 3.72.24.78 1.21 1.24 1.09 2.14a1.42 1.42 0 01-1.68 1.08c-1.49-.22-2.19-1.54-3.26-2.36-.87-.68-2.37-.89-2.93 0s.26 2 .83 2.88a7.24 7.24 0 01.34 7.08 7.56 7.56 0 01-6 4c-1.94.15-4.52-.11-5.23 1.66s1.44 3.4 2.41 5.1c1.17 2.08-.41 5.4-2.82 5s-4.06-3.55-6.16-2.55c-.24 2.07 1.7 3.67 3.21 5.15s2.7 4 1.16 5.47c-2.7-3.68-5.45-7.47-6.7-11.84a1.83 1.83 0 00-.53-1c-.41-.31-1-.22-1.5-.34-2.56-.63-1.17-5.52-3.68-6.32a3 3 0 00-1.51 0 10.78 10.78 0 00-8.41 8.32c-.3 1.6-.23 3.3-1.26 4.69a2.56 2.56 0 01-2.47 1.13c-1.63-.32-2.06-2.19-2.22-3.73-.26-2.38-.51-4.77-.77-7.16-.13-1.17-.49-2.6-1.66-2.85-.36-.07-.74 0-1.11-.07-1.88-.29-2.2-3.33-4.07-3.64-.76-.11-1.55.29-2.29.07s-.88.6-.74 1.51a2.76 2.76 0 01-1 2.55l-7.49 6.2a1.76 1.76 0 00.29 2.9 2 2 0 011 1.37 3.16 3.16 0 01-.55 2c-2.41 4.36-6.59 8.31-6.28 13.25.21 3.32 2.49 6.28 2.62 9.6a14.07 14.07 0 01-.17 2.42 17.58 17.58 0 00-.17 1.78c-.25 5.07 3 9.69 3.56 14.73-4.32-3.58-7-10.32-9.14-15.44-6.81-16.2-5.65-32.52 3.19-47.79 1.6-2.85 10.21-13.41 12.86-15.21 3.45-2.33 7.17-4.35 10.86-6.34a63.74 63.74 0 0110.28-4.59 58.14 58.14 0 0143.31 5.08 4 4 0 01-2.66 1c-1.5 0-3.41 0-4 1.38 2.21.45 3.24 2.93 3.89 5.05z" fill="#daf0fa"/><path d="M89.71 102.98a59.24 59.24 0 01-14.33 1.78A57.3 57.3 0 0142.8 94.71a55.44 55.44 0 01-8.48-7.13 54.39 54.39 0 01-15.61-38.14c0-1.41 0-2.81.16-4.2s.26-2.72.47-4.06c.11-.76.25-1.52.4-2.27A54.87 54.87 0 0121.61 32a54.18 54.18 0 00-6.26 16.58c-.15.76-.29 1.52-.4 2.28-.21 1.34-.37 2.7-.47 4.06s-.16 2.79-.16 4.2a54.44 54.44 0 0015.6 38.12 56 56 0 008.49 7.15 57.3 57.3 0 0032.58 10 56.81 56.81 0 0053.76-37.81 56.59 56.59 0 01-35.04 26.4z" fill="#1ba0e2" opacity=".3"/><path d="M38.67 37.58l.79 1.89a2.49 2.49 0 01.22.75c0 .82-.72 1.43-1.41 1.9a1.19 1.19 0 01-.39-1.37 3.27 3.27 0 00.2-1.5 5.55 5.55 0 01-.24-.64 1 1 0 011.17-1.11M38.61 46.44a8.58 8.58 0 01-.68.81 2.17 2.17 0 00-.32 1.81.92.92 0 01-1.25-.12 1.08 1.08 0 01-.06-1.28c.23-.36.62-.59.84-1a2.13 2.13 0 00.18-1.08 3.65 3.65 0 01.1-1.14c.66-1.86 2.13.57 1.19 2zM100.55 16.99c.59.61.69 1.53 1.13 2.25s1.34 1.46 1.09 2.3a1.61 1.61 0 01-2-1c-.16-.55 0-1.21-.37-1.66a3.1 3.1 0 00-.93-.6c-.52-.31-2-1.78-1.34-2.37.48-.42 2.11.75 2.42 1.08z" fill="#daf0fa"/><path d="M70.97 115.42c-31.8 0-57.67-25.26-57.67-56.32S39.17 2.78 70.97 2.78s57.64 25.26 57.64 56.32-25.84 56.32-57.64 56.32zm0-110.64C40.28 4.78 15.3 29.14 15.3 59.1s25 54.32 55.67 54.32 55.64-24.37 55.64-54.32S101.67 4.78 70.97 4.78z" fill="#123456"/><path d="M69.16 8.32a9.09 9.09 0 012.45.62c1.48.61 3.1 2.2 1.67 3.7a3.61 3.61 0 01-2.09.9c-5.09.78-10.73 1.1-15.22 3.87-1.72 1.07-4.79 3.38-6.78 1.39-1.55-1.54-1.12-3.33.53-4.55 5.42-4 16.01-6.33 19.44-5.93zM41.13 18.97a3.89 3.89 0 00-1.94 2.48 2.56 2.56 0 001.2 2.76 3.19 3.19 0 001.1.28 5.21 5.21 0 002.58-.44 3.9 3.9 0 002.39-3c.3-3.3-3.33-3.23-5.33-2.08z" fill="#fff"/><path d="M52.74 81.58" fill="#fff" stroke="#123456" stroke-linecap="round" stroke-linejoin="round" stroke-width="2"/><path d="M63.13 98.35" fill="none" stroke="#123456" stroke-linecap="round" stroke-linejoin="round" stroke-width="2"/><ellipse cx="33.5" cy="33.05" rx="4.95" ry="2.22" fill="#f8a81a"/><path d="M33.46 7.36a8.77 8.77 0 00-8.77 8.77c0 6.68 5.39 12.89 7.84 15.62a1.28 1.28 0 001.88 0c2.23-2.42 7.44-8.91 7.8-14.81a8.93 8.93 0 00-8.75-9.58z" fill="#ffcd08"/><path d="M29.23 12.75a.67.67 0 01.67-.67h.71a.45.45 0 01.45-.44h2.23a.45.45 0 01.45.44h.67a.67.67 0 01.67.67v2h2.45a.67.67 0 01.67.67v4.92a.22.22 0 01-.22.22h-4.95a.22.22 0 01-.22-.22v-.45a.67.67 0 00-1.34 0v.45a.22.22 0 01-.23.22h-1.78a.22.22 0 01-.23-.22zm1.34.67a.45.45 0 00-.44.45v.45a.44.44 0 00.44.44h.9a.44.44 0 00.44-.44v-.45a.45.45 0 00-.44-.45zm2.24 0a.45.45 0 00-.45.45v.45a.45.45 0 00.45.44h.89a.45.45 0 00.45-.44v-.45a.45.45 0 00-.45-.45zm-2.2 1.79a.45.45 0 00-.44.45v.44a.45.45 0 00.44.48h.9a.45.45 0 00.44-.45v-.44a.45.45 0 00-.44-.45zm2.24 0a.45.45 0 00-.45.45v.44a.45.45 0 00.45.45h.89a.45.45 0 00.45-.45v-.44a.45.45 0 00-.45-.45zM30.61 17a.44.44 0 00-.44.44v.45a.45.45 0 00.44.45h.9a.45.45 0 00.44-.45v-.45a.44.44 0 00-.44-.44zm2.24 0a.45.45 0 00-.45.44v.45a.45.45 0 00.45.45h.89a.45.45 0 00.45-.45v-.45a.45.45 0 00-.45-.44zm3.12-.9a.45.45 0 00-.44.45V17a.44.44 0 00.44.44h.9a.44.44 0 00.44-.44v-.42a.45.45 0 00-.44-.45zm0 1.79a.45.45 0 00-.44.45v.44a.45.45 0 00.44.45h.9a.45.45 0 00.44-.45v-.44a.45.45 0 00-.44-.45z" fill="#1ba0e2" fill-rule="evenodd"/><path d="M33.48 33.17a2.32 2.32 0 01-1.67-.75c-3.48-3.87-8.1-9.76-8.1-16.29a9.76 9.76 0 019.77-9.77 9.53 9.53 0 017 3.05 10.27 10.27 0 012.74 7.6c-.41 6.83-6.79 14.05-8.07 15.43a2.28 2.28 0 01-1.67.73zm0-24.81a7.77 7.77 0 00-7.77 7.77c0 5.84 4.33 11.33 7.59 15 .07.08.15.05.2.09a.26.26 0 00.19-.09c3.3-3.56 7.25-9.42 7.54-14.19a8.21 8.21 0 00-2.2-6.11 7.56 7.56 0 00-5.55-2.42z" fill="#123456"/><ellipse cx="55.43" cy="44.04" rx="5.46" ry="2.45" fill="#f8a81a"/><path d="M55.38 15.75a9.65 9.65 0 00-9.66 9.66c0 7.35 5.89 14.17 8.64 17.17a1.39 1.39 0 002.06 0c2.47-2.66 8.2-9.81 8.59-16.32a9.83 9.83 0 00-9.63-10.51z" fill="#ffcd08"/><path d="M50.72 21.69a.74.74 0 01.74-.74h.74a.49.49 0 01.49-.49h2.46a.49.49 0 01.49.49h.74a.74.74 0 01.74.74v2.21h2.7a.74.74 0 01.74.74v5.41a.25.25 0 01-.25.24h-5.4a.25.25 0 01-.25-.24v-.47a.74.74 0 00-1.48 0v.49a.24.24 0 01-.24.24h-2a.25.25 0 01-.25-.24zm1.48.74a.49.49 0 00-.49.49v.49a.49.49 0 00.49.49h1a.49.49 0 00.5-.49v-.49a.49.49 0 00-.5-.49zm2.46 0a.49.49 0 00-.49.49v.49a.49.49 0 00.49.49h1a.49.49 0 00.49-.49v-.49a.49.49 0 00-.49-.49zm-2.46 2a.49.49 0 00-.49.49v.5a.49.49 0 00.49.49h1a.49.49 0 00.5-.49v-.5a.49.49 0 00-.5-.49zm2.46 0a.49.49 0 00-.49.49v.5a.49.49 0 00.49.49h1a.49.49 0 00.49-.49v-.5a.49.49 0 00-.49-.49zm-2.46 2a.49.49 0 00-.49.49v.49a.49.49 0 00.49.49h1a.49.49 0 00.5-.49v-.49a.49.49 0 00-.5-.49zm2.46 0a.49.49 0 00-.49.49v.49a.49.49 0 00.49.49h1a.49.49 0 00.49-.49v-.49a.49.49 0 00-.49-.49zm3.44-1a.49.49 0 00-.49.49v.49a.49.49 0 00.49.49h1a.49.49 0 00.49-.49v-.49a.49.49 0 00-.49-.49zm0 2a.49.49 0 00-.49.49v.5a.49.49 0 00.49.49h1a.49.49 0 00.49-.49v-.5a.49.49 0 00-.49-.49z" fill="#1ba0e2" fill-rule="evenodd"/><path d="M55.4 44.07a2.46 2.46 0 01-1.77-.8c-3.83-4.24-8.91-10.69-8.91-17.86a10.65 10.65 0 0110.66-10.66 10.42 10.42 0 017.64 3.32 11.12 11.12 0 013 8.29c-.41 7.5-7.41 15.43-8.86 16.94a2.42 2.42 0 01-1.76.77zm0-27.32a8.66 8.66 0 00-8.66 8.66c0 6.46 4.78 12.53 8.38 16.53a.44.44 0 00.3.13.4.4 0 00.29-.13c3.64-3.94 8-10.41 8.33-15.7a9.2 9.2 0 00-2.43-6.8 8.43 8.43 0 00-6.19-2.69z" fill="#123456"/><ellipse cx="80.45" cy="25.18" rx="4.66" ry="2.09" fill="#f8a81a"/><path d="M80.41 1a8.26 8.26 0 00-8.26 8.26c0 6.28 5.07 12.13 7.38 14.7a1.2 1.2 0 001.77 0c2.1-2.28 7-8.39 7.34-13.95A8.4 8.4 0 0080.41 1z" fill="#ffcd08"/><path d="M76.43 6.08a.63.63 0 01.63-.63h.63a.42.42 0 01.42-.42h2.1a.42.42 0 01.42.42h.63a.63.63 0 01.63.63v1.89h2.32a.63.63 0 01.63.63v4.62a.21.21 0 01-.21.21H80a.21.21 0 01-.21-.21v-.42a.63.63 0 10-1.26 0v.42a.21.21 0 01-.21.21h-1.71a.21.21 0 01-.21-.21zm1.26.63a.42.42 0 00-.42.42v.45a.42.42 0 00.42.42h.84a.42.42 0 00.42-.42v-.45a.42.42 0 00-.42-.42zm2.1 0a.42.42 0 00-.42.42v.45a.42.42 0 00.42.42h.82a.42.42 0 00.44-.42v-.45a.42.42 0 00-.44-.42zm-2.1 1.68a.42.42 0 00-.42.42v.42a.42.42 0 00.42.42h.84a.42.42 0 00.42-.42v-.42a.42.42 0 00-.42-.42zm2.1 0a.42.42 0 00-.42.42v.42a.42.42 0 00.42.42h.82a.42.42 0 00.42-.42v-.42a.42.42 0 00-.42-.42zm-2.1 1.68a.42.42 0 00-.42.42v.42a.42.42 0 00.42.42h.84a.42.42 0 00.42-.42v-.42a.42.42 0 00-.42-.42zm2.1 0a.42.42 0 00-.42.42v.42a.42.42 0 00.42.42h.82a.42.42 0 00.42-.42v-.42a.42.42 0 00-.42-.42zm2.94-.84a.42.42 0 00-.42.42v.42a.42.42 0 00.42.42h.88a.42.42 0 00.43-.42v-.42a.42.42 0 00-.43-.42zm0 1.68a.42.42 0 00-.42.42v.42a.42.42 0 00.42.42h.88a.42.42 0 00.43-.42v-.42a.42.42 0 00-.43-.42z" fill="#1ba0e2" fill-rule="evenodd"/><path d="M80.42 25.35a2.18 2.18 0 01-1.63-.77c-3.28-3.64-7.64-9.2-7.64-15.36A9.25 9.25 0 0180.41 0a9.06 9.06 0 016.64 2.89 9.7 9.7 0 012.56 7.19c-.39 6.46-6.41 13.27-7.61 14.57a2.18 2.18 0 01-1.58.7zm0-23.35a7.26 7.26 0 00-7.26 7.26c0 5.47 4.07 10.63 7.13 14 0 .05.09.08.14.06a.18.18 0 00.14-.06c3.1-3.35 6.81-8.85 7.08-13.33a7.66 7.66 0 00-2-5.7A7 7 0 0080.41 2z" fill="#123456"/><ellipse cx="70.13" cy="82.63" rx="4.89" ry="2.19" fill="#f8a81a"/><path d="M70.09 57.29a8.66 8.66 0 00-8.66 8.66c0 6.58 5.32 12.71 7.74 15.4a1.25 1.25 0 001.85 0c2.21-2.38 7.35-8.79 7.7-14.61a8.82 8.82 0 00-8.63-9.45z" fill="#ffcd08"/><path d="M65.92 62.58a.66.66 0 01.66-.66h.66a.44.44 0 01.44-.44h2.2a.44.44 0 01.44.44h.66a.66.66 0 01.63.66v2h2.43a.66.66 0 01.66.66v4.84a.22.22 0 01-.22.22h-4.82a.22.22 0 01-.22-.22v-.44a.66.66 0 00-1.32 0v.44a.22.22 0 01-.22.22h-1.76a.22.22 0 01-.22-.22zm1.32.67a.44.44 0 00-.44.44v.44a.44.44 0 00.44.44h.88a.44.44 0 00.44-.44v-.44a.44.44 0 00-.44-.44zm2.2 0a.44.44 0 00-.44.44v.44a.44.44 0 00.44.44h.88a.44.44 0 00.44-.44v-.44a.43.43 0 00-.44-.44zm-2.2 1.76a.44.44 0 00-.44.44v.44a.44.44 0 00.44.44h.88a.44.44 0 00.44-.44v-.41a.44.44 0 00-.44-.44zm2.2 0a.44.44 0 00-.44.44v.44a.44.44 0 00.44.44h.88a.44.44 0 00.44-.44v-.41a.43.43 0 00-.44-.44zm-2.2 1.76a.44.44 0 00-.44.44v.44a.44.44 0 00.44.44h.88a.44.44 0 00.49-.41v-.44a.44.44 0 00-.44-.44zm2.2 0a.44.44 0 00-.44.44v.44a.44.44 0 00.44.44h.88a.44.44 0 00.44-.44v-.44a.44.44 0 00-.44-.44zm3.08-.88a.44.44 0 00-.44.44v.44a.44.44 0 00.44.44h.89a.44.44 0 00.44-.44v-.44a.44.44 0 00-.44-.44zm0 1.76a.44.44 0 00-.44.44v.49a.44.44 0 00.44.44h.89a.44.44 0 00.44-.44v-.44a.44.44 0 00-.44-.44z" fill="#1ba0e2" fill-rule="evenodd"/><path d="M70.1 82.76a2.24 2.24 0 01-1.66-.74c-3.43-3.82-8-9.63-8-16.07a9.66 9.66 0 019.66-9.66 9.41 9.41 0 016.92 3 10.08 10.08 0 012.7 7.5c-.41 6.79-6.71 13.89-7.96 15.25a2.27 2.27 0 01-1.66.72zm0-24.47a7.65 7.65 0 00-7.66 7.66c0 6.41 5.64 12.67 7.49 14.73a.2.2 0 00.18.08.24.24 0 00.19-.08c3.25-3.51 7.14-9.29 7.43-14a8.09 8.09 0 00-2.17-6 7.41 7.41 0 00-5.46-2.39z" fill="#123456"/><ellipse cx="92.88" cy="87.74" rx="5.37" ry="2.41" fill="#f8a81a"/><path d="M92.84 59.86a9.52 9.52 0 00-9.52 9.52c0 7.25 5.85 14 8.51 17a1.37 1.37 0 002 0c2.43-2.62 8.09-9.67 8.47-16.07a9.69 9.69 0 00-9.46-10.45z" fill="#ffcd08"/><path d="M88.25 65.72a.73.73 0 01.73-.73h.73a.48.48 0 01.48-.49h2.42a.49.49 0 01.49.49h.72a.72.72 0 01.73.73v2.18h2.67a.72.72 0 01.72.72v5.33a.25.25 0 01-.24.25h-5.33a.25.25 0 01-.24-.25v-.48a.73.73 0 00-1.46 0v.48a.24.24 0 01-.24.25h-1.94a.25.25 0 01-.24-.25zm1.46.72a.49.49 0 00-.49.49v.48a.49.49 0 00.49.49h1a.49.49 0 00.49-.49v-.48a.49.49 0 00-.49-.49zm2.42 0a.49.49 0 00-.49.49v.48a.49.49 0 00.49.49h1a.49.49 0 00.48-.49v-.48a.49.49 0 00-.48-.49zm-2.42 1.94a.49.49 0 00-.49.49v.48a.48.48 0 00.49.48h1a.48.48 0 00.49-.48v-.48a.49.49 0 00-.49-.49zm2.42 0a.49.49 0 00-.49.49v.48a.48.48 0 00.49.48h1a.48.48 0 00.48-.48v-.48a.49.49 0 00-.48-.49zm-2.42 1.94a.49.49 0 00-.49.48v.49a.48.48 0 00.49.48h1a.48.48 0 00.49-.48v-.49a.49.49 0 00-.49-.48zm2.42 0a.49.49 0 00-.49.48v.49a.48.48 0 00.49.48h1a.48.48 0 00.48-.48v-.49a.49.49 0 00-.48-.48zm3.39-1a.48.48 0 00-.48.48v.49a.47.47 0 00.48.48h1a.47.47 0 00.48-.48v-.49a.48.48 0 00-.48-.48zm0 1.94a.48.48 0 00-.48.48v.49a.48.48 0 00.48.48h1a.48.48 0 00.48-.48v-.49a.48.48 0 00-.48-.48z" fill="#1ba0e2" fill-rule="evenodd"/><path d="M92.86 87.78a2.38 2.38 0 01-1.75-.78c-3.77-4.19-8.77-10.57-8.77-17.62a10.52 10.52 0 0110.5-10.52 10.29 10.29 0 017.54 3.28 11.06 11.06 0 013 8.19c-.5 7.38-7.4 15.25-8.77 16.69a2.35 2.35 0 01-1.75.76zm0-26.92a8.52 8.52 0 00-8.52 8.52c0 6.36 4.71 12.34 8.26 16.28a.38.38 0 00.28.12.34.34 0 00.27-.12c3.59-3.88 7.89-10.25 8.2-15.46a9 9 0 00-2.41-6.68 8.26 8.26 0 00-6.08-2.66z" fill="#123456"/><ellipse cx="111.29" cy="70.02" rx="4.61" ry="2.07" fill="#f8a81a"/><path d="M111.25 46.13a8.16 8.16 0 00-8.16 8.16c0 6.21 5 12 7.3 14.52a1.18 1.18 0 001.74 0c2.08-2.25 6.92-8.28 7.25-13.77a8.3 8.3 0 00-8.13-8.91z" fill="#ffcd08"/><path d="M107.32 51.15a.62.62 0 01.62-.62h.67a.42.42 0 01.42-.42h2.08a.42.42 0 01.41.42h.62a.62.62 0 01.63.62v1.87h2.28a.62.62 0 01.62.62v4.57a.2.2 0 01-.21.2h-4.56a.2.2 0 01-.21-.2v-.42a.63.63 0 00-1.25 0v.42a.2.2 0 01-.2.2h-1.66a.2.2 0 01-.21-.2zm1.24.62a.42.42 0 00-.41.42v.39a.42.42 0 00.41.42h.83a.42.42 0 00.42-.42v-.41a.42.42 0 00-.42-.42zm2.08 0a.41.41 0 00-.41.42v.39a.41.41 0 00.41.42h.83a.42.42 0 00.42-.42v-.41a.42.42 0 00-.42-.42zm-2.03 1.66a.42.42 0 00-.41.42v.41a.42.42 0 00.41.42h.83a.42.42 0 00.42-.42v-.41a.42.42 0 00-.42-.42zm2.08 0a.41.41 0 00-.41.42v.41a.41.41 0 00.41.42h.83a.42.42 0 00.42-.42v-.41a.42.42 0 00-.42-.42zm-2.08 1.66a.42.42 0 00-.41.42v.41a.42.42 0 00.41.42h.83a.42.42 0 00.42-.42v-.41a.42.42 0 00-.42-.42zm2.08 0a.41.41 0 00-.41.42v.41a.41.41 0 00.41.42h.83a.42.42 0 00.42-.42v-.41a.42.42 0 00-.42-.42zm2.91-.83a.42.42 0 00-.42.42v.41a.42.42 0 00.42.42h.83a.41.41 0 00.41-.42v-.41a.41.41 0 00-.41-.42zm0 1.66a.42.42 0 00-.42.42v.41a.42.42 0 00.42.42h.83a.41.41 0 00.41-.42v-.41a.41.41 0 00-.41-.42z" fill="#1ba0e2" fill-rule="evenodd"/><path d="M111.26 70.2a2.2 2.2 0 01-1.65-.72c-3.24-3.61-7.55-9.1-7.55-15.19a9.15 9.15 0 019.16-9.16 8.93 8.93 0 016.56 2.86 9.56 9.56 0 012.57 7.12c-.38 6.38-6.33 13.11-7.52 14.39a2.16 2.16 0 01-1.57.7zm0-23.07a7.17 7.17 0 00-7.16 7.16c0 5.4 4 10.49 7 13.85a.19.19 0 00.14.06.15.15 0 00.12-.06c3.06-3.3 6.73-8.73 7-13.15a7.56 7.56 0 00-2-5.63 7 7 0 00-5.11-2.23z" fill="#123456"/><path d="M109.38 19.58h25a9.14 9.14 0 110 18.28h-25a8.84 8.84 0 00-7.9 4.25.67.67 0 01-1.24-.36v-13a9.16 9.16 0 019.14-9.17z" fill="#1ba0e2" fill-rule="evenodd"/><path d="M140.5 28.65a10.26 10.26 0 00-5.44-9 9.14 9.14 0 01-.69 18.25h.33a10.27 10.27 0 005.8-9.25zM108.02 37.96h.19zM106.86 38.17h.12z" fill="#92d2f1" fill-rule="evenodd"/><path d="M100.92 43.44a1.58 1.58 0 01-.47-.07 1.66 1.66 0 01-1.21-1.61v-13a10.15 10.15 0 0110.14-10.18h25a10.14 10.14 0 110 20.28h-25a7.81 7.81 0 00-7 3.78 1.65 1.65 0 01-1.46.8zm8.46-22.86a8.15 8.15 0 00-8.14 8.14v12a9.77 9.77 0 018.14-3.85h25a8.14 8.14 0 100-16.28z" fill="#123456"/><path d="M109.02 28.58h2.45v-2.72h1.63v2.72h2.45v1.5h-2.45v2.65h-1.63v-2.65h-2.45zM117.9 30.94h1.82v-3.56-.66a1.69 1.69 0 01-.34.46l-.51.46-1.26-1.29 2.31-2.16h1.8v6.75h1.89v1.79h-5.69zM126.51 24.19h2.27l1.24 3.61c.19.55.43 1.41.43 1.41s.24-.86.43-1.41l1.24-3.61h2.27l.69 8.54h-2.09l-.26-3.85a12.11 12.11 0 010-1.43s-.29.9-.48 1.43l-.9 2.48h-1.74l-.9-2.48c-.19-.53-.47-1.43-.47-1.43a12.11 12.11 0 010 1.43l-.26 3.85h-2.1z" fill="#daf0fa"/><path d="M38.86 137.86v4.19a3.82 3.82 0 003.09 3.76 161.19 161.19 0 0057.26 0 4.25 4.25 0 003.49-4.18v-3.76s-34.77 10.76-63.84-.01z" fill="#92d2f1"/><path d="M70.18 149.35a151.13 151.13 0 01-28.43-2.56 4.84 4.84 0 01-3.89-4.74v-4.19a1 1 0 01.4-.79 1 1 0 01.87-.17c34.07 9.63 63 .11 63.25 0a1 1 0 01.91.13 1 1 0 01.41.81v3.74a5.22 5.22 0 01-4.32 5.16 166.51 166.51 0 01-29.2 2.61zm-30.32-10.17v2.87a2.84 2.84 0 002.28 2.78 159.73 159.73 0 0056.89 0 3.22 3.22 0 002.67-3.19v-2.41a121.29 121.29 0 01-61.84-.05z" fill="#123456"/><path d="M9.2 99.5c-4.18 0-6.93-1-8.28-2.84-3.25-4.52 3.09-12.22 3.36-12.55a1 1 0 011.41-.12 1 1 0 01.13 1.4c-1.57 1.9-5.21 7.4-3.28 10.11s11.2 5.1 50.73-10.18a1.002 1.002 0 01.72 1.87C32.7 95.41 17.87 99.5 9.2 99.5zM107.61 83.85a1 1 0 01-.47-1.88c31.54-16.76 35.14-23.86 34.49-26.61s-6.22-3.34-8.12-3.37a1 1 0 01-1-1 1 1 0 011-1c.91 0 8.93.3 10 4.91 1.43 6-10.18 15.39-35.49 28.83a1 1 0 01-.41.12zM14.35 104.58a1 1 0 010-2c.15 0 15.35-.53 35.44-9.76a1 1 0 01.82 1.76c-20.49 9.44-35.6 10-36.23 10zM117.12 85.04a1 1 0 01-.35-1.94 77 77 0 0022.28-13.19 1.002 1.002 0 011.35 1.48 77.77 77.77 0 01-22.93 13.58.87.87 0 01-.35.07z" fill="#ffcc05"/><ellipse cx="25.77" cy="57.62" rx="4.75" ry="2.13" fill="#f8a81a"/><path d="M25.73 32.99a8.41 8.41 0 00-8.41 8.41c0 6.4 5.17 12.36 7.52 15a1.22 1.22 0 001.8 0c2.14-2.32 7.14-8.55 7.48-14.21a8.56 8.56 0 00-8.39-9.2z" fill="#ffcd08"/><path d="M21.68 38.16a.64.64 0 01.64-.64h.64a.43.43 0 01.43-.43h2.14a.43.43 0 01.43.43h.65a.65.65 0 01.65.64v1.93h2.35a.64.64 0 01.64.64v4.71a.21.21 0 01-.21.22h-4.72a.22.22 0 01-.22-.22v-.43a.64.64 0 00-.64-.64.64.64 0 00-.64.64v.43a.22.22 0 01-.21.22h-1.72a.21.21 0 01-.21-.22zm1.28.64a.44.44 0 00-.43.43v.43a.43.43 0 00.43.43h.86a.43.43 0 00.43-.43v-.43a.43.43 0 00-.43-.43zm2.14 0a.43.43 0 00-.42.43v.43a.42.42 0 00.42.43h.86a.43.43 0 00.43-.43v-.43a.43.43 0 00-.43-.43zm-2.14 1.72a.43.43 0 00-.43.43v.42a.43.43 0 00.43.43h.86a.43.43 0 00.43-.43v-.42a.43.43 0 00-.43-.43zm2.14 0a.42.42 0 00-.42.43v.42a.42.42 0 00.42.43h.86a.43.43 0 00.43-.43v-.42a.43.43 0 00-.43-.43zm-2.14 1.71a.43.43 0 00-.43.43v.43a.43.43 0 00.43.42h.86a.42.42 0 00.43-.42v-.43a.43.43 0 00-.43-.43zm2.14 0a.42.42 0 00-.42.43v.43a.42.42 0 00.42.42h.86a.42.42 0 00.43-.42v-.43a.43.43 0 00-.43-.43zm3-.86a.44.44 0 00-.43.43v.43a.43.43 0 00.43.43h.86a.43.43 0 00.43-.43v-.43a.44.44 0 00-.43-.43zm0 1.72a.43.43 0 00-.43.42v.43a.43.43 0 00.43.43h.86a.43.43 0 00.43-.43v-.43a.43.43 0 00-.43-.42z" fill="#1ba0e2" fill-rule="evenodd"/><path d="M25.75 57.78a2.22 2.22 0 01-1.63-.74c-3.34-3.71-7.78-9.37-7.78-15.64a9.41 9.41 0 019.41-9.41 9.17 9.17 0 016.75 2.94 9.84 9.84 0 012.64 7.31c-.4 6.57-6.52 13.51-7.75 14.83a2.21 2.21 0 01-1.64.71zm0-23.79a7.41 7.41 0 00-7.41 7.41c0 5.58 4.15 10.84 7.27 14.31.05.06.12 0 .16.07a.22.22 0 00.16-.07c3.15-3.41 6.94-9 7.21-13.59a7.82 7.82 0 00-2.09-5.82 7.22 7.22 0 00-5.3-2.31z" fill="#123456"/><path d="M142.14 126.15h-28.61a2 2 0 01-2-2v-.26a2 2 0 011.84-2h17.14a2.05 2.05 0 002-2v-.26a2 2 0 00-2-2H116.9a2.05 2.05 0 01-2.05-2v-.27a2.05 2.05 0 012-2.05h9.77a2 2 0 002-2v-.26a2.05 2.05 0 00-2.05-2h-6.76a2.9 2.9 0 01-2.36-1.46l-9.84-20.01c-.71-1.64-2.43-3.07-4.51-2.16l-.83.36a3.28 3.28 0 00-1.66 4.31l-2.94.29L78 99.58c-6 3.58-.31 12 1.71 15.61a32.12 32.12 0 001.84 2.87s8 12.1 22.9 12.44h37.7a2 2 0 002-2v-.27a2 2 0 00-2.01-2.08z" fill="#91ceec"/><path d="M142.14 131.5h-37.7a.85.85 0 01-.23 0c-15.16-.45-23.16-12.37-23.5-12.88a31.83 31.83 0 01-1.87-2.93l-.57-1c-2.31-4-7.12-12.18-.79-16l.09-.05 19.67-9.16a.9.9 0 01.32-.09l1.79-.18a4.29 4.29 0 012.56-4.35l.84-.36c2.57-1.12 4.88.5 5.82 2.68l9.78 19.63a1.89 1.89 0 001.46.91h6.8a3.06 3.06 0 013.05 3v.26a3 3 0 01-3 3h-9.77a1 1 0 00-1 1.05v.26a1.06 1.06 0 001.05 1.06h13.62a3 3 0 013 3v.26a3.06 3.06 0 01-3 3h-17.13a1 1 0 00-.94 1v.26a1 1 0 001 1h28.61a3 3 0 013 3v.27a3 3 0 01-2.96 3.36zm-37.49-2h37.4a1.05 1.05 0 001.12-1v-.27a1 1 0 00-1-1h-28.64a3 3 0 01-3-3v-.26a3 3 0 012.43-3 .85.85 0 01.23 0h17.32a1 1 0 001-1v-.26a1 1 0 00-1-1H116.9a3.06 3.06 0 01-3.05-3.06v-.26a3.05 3.05 0 013-3.05h9.77a1 1 0 001-1v-.26a1 1 0 00-1.05-1h-6.76a3.86 3.86 0 01-3.25-2l-9.8-19.67c-.43-1-1.57-2.41-3.22-1.7l-.83.37a2.26 2.26 0 00-1.19 3 1 1 0 010 .91 1 1 0 01-.77.49l-2.77.27-19.46 9.08c-4.22 2.58-1.43 8.17 1.53 13.22l.58 1a30 30 0 001.78 2.79c.1.15 7.89 11.7 22.11 12z" fill="#123456"/><path d="M142.91 126.24a2.27 2.27 0 00-.59-.09h-28.6a2.05 2.05 0 01-2-2v-.26a2.05 2.05 0 011.84-2h17.19a2.05 2.05 0 002-2v-.26a2 2 0 00-2-2h-13.66a2 2 0 01-2-2v-.27a2 2 0 012-2.05h9.76a2 2 0 002.05-2v-.26a2.05 2.05 0 00-2.05-2H120a2.9 2.9 0 01-2.35-1.46l-9.81-20.01c-.71-1.64-2.43-3.07-4.51-2.16l-.48.2c0 .07 0 .14.07.21l-.64.07a3.27 3.27 0 00-1.49 4.19l-2.94.29-18.6 8.68a30.17 30.17 0 002.78 11.85 33.76 33.76 0 001.83 2.88s8 12.09 22.9 12.43z" fill="#d8eff7"/><path d="M81.74 109.42L69.48 81.16a4.16 4.16 0 012.13-5.48 4.16 4.16 0 015.48 2.16l8.92 20.56" fill="#d8eff7"/><path d="M81.74 110.42a1 1 0 01-.92-.61L68.61 81.58a5.17 5.17 0 119.48-4.12l8.92 20.56a1.003 1.003 0 01-1.84.8L76.2 78.24a3.11 3.11 0 00-1.74-1.66 3.17 3.17 0 00-4.07 4.21l12.22 28.23a1 1 0 01-.51 1.31 1 1 0 01-.36.09z" fill="#123456"/><path d="M85.91 98.1l-1.43-3.29a4.18 4.18 0 012.13-5.48 4.16 4.16 0 015.48 2.16l1.61 3.71" fill="#d8eff7"/><path d="M85.91 99.1a1 1 0 01-.92-.61l-1.38-3.28a5.17 5.17 0 019.48-4.11l1.6 3.7a1 1 0 11-1.83.8l-1.65-3.71a3.17 3.17 0 00-5.81 2.52l1.43 3.29a1 1 0 01-.52 1.31 1 1 0 01-.4.09z" fill="#123456"/><path d="M93.74 95.2l-1.61-3.71a4.16 4.16 0 012.16-5.48 4.17 4.17 0 015.48 2.17l1.93 4.4" fill="#d8eff7"/><path d="M93.74 96.2a1 1 0 01-.92-.6l-1.61-3.71a5.18 5.18 0 012.68-6.79 5.16 5.16 0 016.8 2.68l1.92 4.44a1.003 1.003 0 11-1.84.8l-1.91-4.44a3.16 3.16 0 00-5.85.09 3.11 3.11 0 000 2.43l1.6 3.7a1 1 0 01-.52 1.32 1 1 0 01-.35.08z" fill="#123456"/><rect x="136.02" y="117.55" width="5.72" height="4.23" rx="2.11" fill="#d8eff7"/><path d="M139.61 122.78h-1.5a3.12 3.12 0 010-6.23h1.5a3.12 3.12 0 010 6.23zm-1.5-4.23a1.12 1.12 0 000 2.23h1.5a1.12 1.12 0 000-2.23z" fill="#123456"/><path d="M142.18 131.58h-37.69a1 1 0 01-.24 0c-15.15-.46-23.16-12.37-23.49-12.88a31.25 31.25 0 01-1.87-2.94l-.57-1c-2.13-3.65-6.48-11.07-1.92-15.14l-7.79-17.95a5.16 5.16 0 119.47-4.09l5.74 13.23a5.18 5.18 0 016.43-2.33 5.21 5.21 0 01.71.35 5.2 5.2 0 013-3.6 5.2 5.2 0 016.06 1.47 4.28 4.28 0 012-1.7l.83-.36c2.58-1.12 4.88.5 5.83 2.68l9.77 19.63a1.91 1.91 0 001.46.9h6.85a3.06 3.06 0 013 3.06v.26a3 3 0 01-3 3H117a1 1 0 00-1 1v.26a1 1 0 001 1h13.61a3.06 3.06 0 013.05 3v.26a3.06 3.06 0 01-3.05 3h-17.14a1.05 1.05 0 00-.94 1v.27a1 1 0 001 1h28.6a3 3 0 013 3v.62a3 3 0 01-2.95 3zm-37.48-2h37.39a1.06 1.06 0 001.13-1v-.28a1 1 0 00-1-1h-28.61a3 3 0 01-3-3v-.27a3 3 0 012.44-3h17.56a1 1 0 001.05-1v-.45a1 1 0 00-1.05-1h-13.66a3 3 0 01-3-3v-.26a3 3 0 013-3h9.76a1 1 0 001-1v-.26a1.06 1.06 0 00-1-1.06h-6.85a3.85 3.85 0 01-3.25-2l-9.8-19.86c-.44-1-1.57-2.4-3.22-1.69l-.84.36a2.24 2.24 0 00-1.21 1.26 2.28 2.28 0 000 1.74 1.003 1.003 0 01-1.84.8l-.83-1.92a3.17 3.17 0 00-4.16-1.64 3.17 3.17 0 00-1.65 4.16 1 1 0 01.09.4 1 1 0 01-.54.97 1 1 0 01-1.31-.52 3.17 3.17 0 00-5.83 2.48l.64 1.47a1.003 1.003 0 11-1.84.8l-.66-1.48v-.06l-7.36-16.92a3.17 3.17 0 00-5.85.1 3.12 3.12 0 000 2.42l8.14 18.71a1 1 0 01-.34 1.22c-3.77 2.65-1 8.11 1.84 13l.59 1a30 30 0 001.78 2.78c.09.15 7.88 11.7 22.11 12z" fill="#123456"/></svg>