<svg id="Capa_1" enable-background="new 0 0 511.998 511.998" height="512" viewBox="0 0 511.998 511.998" width="512" xmlns="http://www.w3.org/2000/svg"><g><path d="m376.626 109.716c30.297 0 54.857-24.562 54.857-54.858s-24.56-54.858-54.857-54.858-54.858 24.56-54.858 54.857 24.561 54.859 54.858 54.859z"/><path d="m135.361 109.716c30.297 0 54.857-24.562 54.857-54.858s-24.561-54.858-54.857-54.858c-30.297 0-54.857 24.56-54.857 54.857s24.559 54.859 54.857 54.859z"/><path d="m320.993 496.998c0 8.284 6.717 15 15 15h81.246c8.285 0 15-6.716 15-15v-51.99h-111.246z"/><path d="m480.02 392.116-31.416-57.116h18.637c8.285 0 15-6.716 15-15v-104.66c0-39.828-22.162-74.573-54.799-92.565-14.174 10.634-31.771 16.941-50.816 16.941-19.049 0-36.648-6.311-50.826-16.948-32.643 17.99-54.811 52.739-54.811 92.572v104.66c0 8.284 6.717 15 15 15h14.344l-27.887 58.559c-2.213 4.647-1.889 10.105.859 14.458 2.748 4.352 7.537 6.992 12.684 6.992h181.252.022c8.283 0 15-6.716 15-15-.001-2.896-.823-5.601-2.243-7.893zm-103.402-192.397c-8.285 0-15-6.716-15-15s6.715-15 15-15c8.283 0 15 6.716 15 15s-6.717 15-15 15z"/><path d="m186.18 122.772c-10.365 7.776-22.567 13.214-35.819 15.589v58.86c0 8.284-6.716 15-15 15s-15-6.716-15-15v-58.86c-13.252-2.375-25.455-7.813-35.82-15.589-32.642 17.989-54.805 52.736-54.805 92.567v144.664c0 8.284 6.716 15 15 15h25.002v121.994c0 8.284 6.716 15 15 15h100.995c8.284 0 15-6.716 15-15v-121.993h25.253c8.284 0 15-6.716 15-15v-144.664c0-39.832-22.164-74.579-54.806-92.568z"/></g></svg>