<svg id="Layer_1" enable-background="new 0 0 512 512" height="512" viewBox="0 0 512 512" width="512" xmlns="http://www.w3.org/2000/svg"><path d="m425.949 69.63-10.783-37.167c-5.633-19.417-23.001-32.463-43.219-32.463h-231.934c-20.211 0-37.578 13.041-43.214 32.45-3.636 12.52-7.211 24.841-10.771 37.185-21.268 3.57-37.528 22.099-37.528 44.366v29.999c0 8.284 6.716 15 15 15h13.62l41.548 313.905c2.95 22.288 22.128 39.095 44.61 39.095h185.415c22.481 0 41.659-16.806 44.61-39.091l41.576-313.909h13.621c8.284 0 15-6.716 15-15v-29.999c0-22.275-16.272-40.81-37.551-44.371zm-300.341-28.814c1.908-6.57 7.562-10.816 14.405-10.816h231.935c6.845 0 12.5 4.248 14.406 10.82l8.175 28.18h-277.093c2.701-9.342 5.419-18.705 8.172-28.184zm-47.108 73.185c0-8.271 6.728-14.999 14.999-14.999h325.003c8.271 0 14.999 6.728 14.999 14.999v14.999h-355v-14.999zm285.063 354.969c-1 7.55-7.253 13.03-14.87 13.03h-185.415c-7.617 0-13.871-5.48-14.87-13.032l-41.027-309.968h133.619v84h-1.997c-3.978 0-7.793 1.58-10.606 4.393l-18.003 18.002c-2.813 2.813-4.394 6.628-4.394 10.607v61.998c0 8.284 6.716 15 15 15h70c8.284 0 15-6.716 15-15v-61.998c0-3.978-1.581-7.793-4.394-10.606l-18.002-18.002c-2.813-2.813-6.628-4.394-10.606-4.394h-1.998v-84h133.617zm-118.347-195.97h21.568l9.216 9.216v40.784h-40v-40.784z"/></svg>