<svg id="Layer_1" enable-background="new 0 0 512 512" height="512" viewBox="0 0 512 512" width="512" xmlns="http://www.w3.org/2000/svg"><g><g><g><g><g><g id="XMLID_541_"><g id="XMLID_542_"><g id="XMLID_543_"><g id="XMLID_544_"><g id="XMLID_545_"><g id="XMLID_546_"><g id="XMLID_547_"><g id="XMLID_548_"><g id="XMLID_549_"><g id="XMLID_550_"><g id="XMLID_551_"><g id="XMLID_552_"><g id="XMLID_553_"><g id="XMLID_554_"><g><path d="m512 256c0 73.36-30.86 139.52-80.31 186.2-45.85 43.27-107.67 30.1-175.69 30.1s-129.84 13.17-175.69-30.1c-49.45-46.68-80.31-112.84-80.31-186.2 0-141.38 114.62-256 256-256s256 114.62 256 256z" fill="#9bda05"/></g></g></g></g></g></g></g></g></g></g></g></g></g></g></g></g></g></g></g><path d="m108.652 275.454 131.07 131.07 143.566 62.106c17.546-4.577 33.786-12.635 48.402-26.429 49.45-46.681 80.31-112.841 80.31-186.201 0-12.549-.903-24.887-2.648-36.952l-171.652-172.693z" fill="#57c126"/><path d="m182.764 377.462c-33.771 0-61.147-27.376-61.147-61.147 0-9.43 2.135-18.361 5.947-26.337-21.26-10.859-35.817-32.97-35.817-58.481 0-21.859 10.687-41.221 27.12-53.148-6.838-9.873-10.844-21.856-10.844-34.774 0-30.977 23.035-56.574 52.91-60.597 3.468-30.479 29.345-54.157 60.752-54.157 13.061 0 25.165 4.095 35.1 11.071 9.934-6.976 22.039-11.071 35.1-11.071 31.407 0 57.284 23.679 60.752 54.157 29.875 4.023 52.91 29.62 52.91 60.597 0 12.918-4.006 24.901-10.844 34.774 16.434 11.927 27.121 31.289 27.121 53.148 0 25.511-14.556 47.622-35.817 58.481 3.813 7.976 5.947 16.907 5.947 26.337 0 33.771-27.376 61.147-61.147 61.147z" fill="#ffe027"/><path d="m386.01 289.98c3.81 7.97 5.94 16.9 5.94 26.33 0 33.78-27.37 61.15-61.14 61.15h-74.81v-338.12c.27.19.53.37.79.55 9.93-6.97 22.03-11.07 35.1-11.07 31.4 0 57.28 23.68 60.75 54.16 29.87 4.02 52.91 29.62 52.91 60.59 0 12.92-4.01 24.91-10.85 34.78 16.44 11.93 27.12 31.29 27.12 53.15 0 25.51-14.55 47.62-35.81 58.48z" fill="#f7bc00"/><g><g><path d="m202.611 246.54h106.778v113.238h-106.778z" fill="#eaa678"/><path d="m256 246.543h53.389v113.238h-53.389z" fill="#d38c5b"/><path d="m341.176 431.915h-164.589l-30.068-108.906h109.48z" fill="#ffc397"/><path d="m367.052 323.009-25.876 108.904h-85.177v-108.904z" fill="#eaa678"/><path d="m337.754 153.916c-3.453-52.433-45.866-71.81-81.754-71.81s-78.3 19.377-81.754 71.81c-9.28 1.795-15.873 13.967-14.835 23.809l1.591 22.397c1.089 10.335 10.173 17.88 20.185 16.757l1.727-.187c20.509 55.07 52.671 60.812 73.086 64.035 20.415-3.224 52.577-8.966 73.086-64.035l1.727.187c10.012 1.123 19.097-6.422 20.185-16.757l1.591-22.397c1.038-9.841-5.555-22.014-14.835-23.809z" fill="#ffc397"/><path d="m352.589 177.726-1.591 22.397c-1.089 10.335-10.173 17.88-20.185 16.757l-1.727-.187c-7.009 18.799-15.371 31.856-24.158 41.017-16.945 17.676-35.48 20.892-48.928 23.018v-198.622c35.888 0 78.3 19.377 81.754 71.81 9.28 1.795 15.873 13.968 14.835 23.81z" fill="#eaa678"/></g><path d="m255.999 64.046c-103.411-2.459-81.753 89.871-81.753 89.871 60.015 13.487 81.753-33.156 81.753-33.156s21.738 46.643 81.753 33.156c0-.001 21.658-92.33-81.753-89.871z" fill="#ffe027"/><path d="m337.75 153.92c-60.01 13.48-81.75-33.16-81.75-33.16v-56.71c103.41-2.46 81.75 89.87 81.75 89.87z" fill="#f7bc00"/></g><path d="m431.69 375.53v66.67c-45.85 43.27-107.67 69.8-175.69 69.8s-129.84-26.53-175.69-69.8v-66.67c0-29.01 23.51-52.52 52.52-52.52h13.69l109.48 69.49 109.48-69.49h13.69c29.01 0 52.52 23.51 52.52 52.52z" fill="#ff405c"/><path d="m431.69 375.53v66.67c-45.85 43.27-107.67 69.8-175.69 69.8v-119.5l109.48-69.49h13.69c29.01 0 52.52 23.51 52.52 52.52z" fill="#d0004f"/><path d="" fill="#ff405c"/></g></svg>